<svg width="77" height="61" viewBox="0 0 77 61" fill="none" xmlns="http://www.w3.org/2000/svg">
  <path d="M7.92239 59.5L2 27.6674M7.92239 59.5C30.1533 53.2276 42.5454 50.5643 64.5548 47.2852M7.92239 59.5L22 36.5558M2 27.6674C23.7131 22.7611 34.9476 18.8964 54.4012 11.3059M2 27.6674L22 36.5558M54.4012 11.3059L64.5548 47.2852M54.4012 11.3059L36.5 35.035M64.5548 47.2852L36.5 35.035M22 36.5558L32 41L36.5 35.035" stroke="#343C48" stroke-width="2"/>
  <path d="M58.8142 9.12623L69.9197 7.74297L71.9194 15.7388L76.8648 23.3077L68.5115 26.5415L66.4526 35.0906L57.7436 29.2346L49.654 33.5019L45.0854 25.914L32.0611 25.7074L37.269 14.5147L33.6338 4.53526L44.9939 5.73665L51.7674 -6.7701e-07L58.8142 9.12623Z" fill="#14171B"/>
  <path d="M58.8142 9.12623L69.9197 7.74297L71.9194 15.7388L76.8648 23.3077L68.5115 26.5415L66.4526 35.0906L57.7436 29.2346L49.654 33.5019L45.0854 25.914L32.0611 25.7074L37.269 14.5147L33.6338 4.53526L44.9939 5.73665L51.7674 -6.7701e-07L58.8142 9.12623Z" fill="#ABB0B8"/>
  <path d="M39.7306 10.6017L44.8118 10.688M44.8118 10.688L49.893 10.7743M44.8118 10.688L42.7726 19.6188" stroke="#14171B" stroke-width="2"/>
  <path d="M53.2566 23.0865C51.3525 24.2827 48.8391 23.7089 47.6429 21.8047C46.4467 19.9006 47.0206 17.3873 48.9247 16.1911C50.8288 14.9949 53.3421 15.5687 54.5384 17.4729C55.7346 19.377 55.1607 21.8903 53.2566 23.0865Z" stroke="#14171B" stroke-width="2"/>
  <path d="M64.0901 25.0232C62.186 26.2194 59.6726 25.6455 58.4764 23.7414C57.2802 21.8373 57.8541 19.324 59.7582 18.1277C61.6623 16.9315 64.1756 17.5054 65.3719 19.4095C66.5681 21.3136 65.9942 23.8269 64.0901 25.0232Z" stroke="#14171B" stroke-width="2"/>
  <path d="M53.4086 13.5285C52.8496 13.7809 52.1919 13.5324 51.9395 12.9734C51.6872 12.4145 51.9357 11.7568 52.4946 11.5044C53.0536 11.252 53.7113 11.5006 53.9637 12.0595C54.216 12.6185 53.9675 13.2762 53.4086 13.5285Z" fill="#14171B"/>
  <path d="M61.2226 14.9439C60.8129 15.4003 60.1108 15.4381 59.6545 15.0285C59.1981 14.6188 59.1602 13.9167 59.5699 13.4604C59.9795 13.004 60.6816 12.9661 61.138 13.3758C61.5944 13.7854 61.6322 14.4875 61.2226 14.9439Z" fill="#14171B"/>
  <path d="M56.3466 14.6388C55.7877 14.8911 55.13 14.6426 54.8776 14.0837C54.6252 13.5247 54.8737 12.867 55.4327 12.6146C55.9916 12.3623 56.6493 12.6108 56.9017 13.1697C57.1541 13.7287 56.9055 14.3864 56.3466 14.6388Z" fill="#14171B"/>
  <path d="M64.3589 14.7747C63.9492 15.2311 63.2471 15.269 62.7907 14.8593C62.3344 14.4496 62.2965 13.7476 62.7062 13.2912C63.1158 12.8348 63.8179 12.7969 64.2743 13.2066C64.7307 13.6162 64.7685 14.3183 64.3589 14.7747Z" fill="#14171B"/>
</svg>