<svg width="193" height="218" viewBox="0 0 193 218" fill="none" xmlns="http://www.w3.org/2000/svg">
  <path d="M174.656 64.039C177.471 71.2402 175.375 78.7897 169.974 80.9012C164.573 83.0127 157.913 78.8866 155.098 71.6854C152.282 64.4842 154.378 56.9347 159.779 54.8232C165.18 52.7117 171.841 56.8378 174.656 64.039Z" stroke="#343C48" stroke-width="2" stroke-dasharray="6 6"/>
  <path d="M144.316 20.8303L152.5 6.70416C152.5 6.70416 131.892 3.63362 126.659 2.1953C121.426 0.756985 118.126 2.19526 118.126 6.70416C119.811 34.2537 118.907 49.6979 113.455 77.1988C112.864 86.1141 126.304 87.4648 126.925 78.0913L126.659 13.9999L144.316 20.8303Z" stroke="#343C48" stroke-width="2"/>
  <path d="M93.7116 122.185C93.7116 122.185 81.9556 129.073 69.5683 132.856C57.181 136.638 23.1266 138.985 10.9577 133.157C-1.21111 127.329 -0.2804 120.532 8.7098 116.552C17.7 112.572 38.8648 109.896 38.8648 109.896" stroke="#343C48" stroke-width="2"/>
  <path d="M97.8329 199.064C103.023 172.123 103.546 155.261 105.425 122.258L117 122.258L133 122.258C130.405 154.873 131.984 172.77 133 200.5C130.763 201.807 127.991 203.419 125 205.22C120.176 208.124 114.785 211.519 110.155 214.914C105.425 212 100 204 97.8329 199.064Z" fill="#14181D"/>
  <path d="M117 122.258C110.155 145 110.046 182.54 110.155 214.914M117 122.258L105.425 122.258C103.546 155.261 103.023 172.123 97.8329 199.064C100 204 105.425 212 110.155 214.914M117 122.258L133 122.258C130.405 154.873 131.984 172.77 133 200.5C130.763 201.807 127.991 203.419 125 205.22M110.155 214.914C114.785 211.519 120.176 208.124 125 205.22M125 205.22C125 195.98 123 167.5 125 152.5" stroke="#343C48" stroke-width="2"/>
  <path d="M96.0445 74.3455L76.767 74.7421L78.3937 113.352L93.4768 113.096" stroke="#ABB0B8" stroke-width="2"/>
  <path d="M95.2638 67.1792L53.4005 61.0573M53.4005 61.0573L47.4995 99.5871M53.4005 61.0573L69.2328 80.5205M47.4995 99.5871L95.0857 107.762M47.4995 99.5871L69.2328 80.5205M69.2328 80.5205L73.9105 86.271L77.3785 84.4606" stroke="#ABB0B8" stroke-width="2"/>
  <path d="M50.6143 39.9474L41.1012 76.1454L50.9809 78.6262M50.6143 39.9474L67.3167 63.2348M50.6143 39.9474L83.5765 47.7668" stroke="#ABB0B8" stroke-width="2"/>
  <path d="M90.7556 46.7924L69.2015 49.9677L71.2348 63.4945" stroke="#ABB0B8" stroke-width="2"/>
  <path d="M93.758 121.485L179.063 122.534C179.063 122.534 190.16 87.6964 191.182 72.2794C192.203 56.8624 180.474 38.0896 164.64 37.0404C157.316 36.5551 147.226 38.3806 127 37.0404M93.758 121.485L38.8648 109.896C38.8648 109.896 34.9615 74.0646 36.0935 56.9809C37.2255 39.8973 53.2023 26.1545 70.0549 30.773M93.758 121.485C93.758 121.485 96.1876 84.8175 95.2362 67.5959C94.2849 50.3742 90.1959 36.2926 70.0549 30.773M70.0549 30.773C70.0549 30.773 97.732 35.6974 118 37.0404" stroke="#343C48" stroke-width="2"/>
  <path d="M78 110L28.6642 115.267L24.4823 77.3245L41 76" stroke="#ABB0B8" stroke-width="2"/>
  <path d="M44 64.5L1.3468 85.417M1.3468 85.417L17.7503 122.077L30.7475 115.405M1.3468 85.417L26.7527 93.5873" stroke="#ABB0B8" stroke-width="2"/>
</svg>