<svg width="225" height="279" viewBox="0 0 225 279" fill="none" xmlns="http://www.w3.org/2000/svg">
  <path d="M44.8193 235.756C53.3499 207.038 41.8682 199.957 47.1612 162.396L1.9917 169.316C4.20626 190.741 9.66449 249.649 15.7078 261.422C20.6351 271.02 21.9994 275.642 32.6683 277.252C46.7393 279.374 120.038 237.847 119.308 232.627C116.415 221.898 101.604 203.231 91.4071 200.564C84.5141 205.131 67.2101 224.425 44.8193 235.756Z" fill="#14181D"/>
  <path d="M47.1612 162.395C41.8682 199.957 53.3499 207.038 44.8193 235.756M44.8193 235.756C67.2101 224.425 84.5141 205.13 91.4071 200.564C101.604 203.231 116.415 221.898 119.308 232.627C120.038 237.847 46.7393 279.374 32.6683 277.252C21.9994 275.642 20.6351 271.02 15.7078 261.422C9.66449 249.649 4.20626 190.741 1.9917 169.316C-1.36741 136.818 9.91528 125.882 31.3007 107.269C50.0878 130.384 80.3473 119.023 81.9221 118.411M44.8193 235.756C43.232 235.727 38.916 233.909 35.9793 240.373M44.8193 235.756C43.7259 236.723 41.3209 241.373 42.0411 246.053M81.9221 118.411C81.9645 118.394 81.9861 118.385 81.9861 118.385C81.9861 118.385 81.968 118.554 81.9221 118.411ZM81.9221 118.411C81.8193 118.091 81.5771 116.22 81.0851 107.457C81.0851 107.457 87.819 107.871 92.0109 110.034C96.2027 112.197 115.968 108.56 121.185 171.846" stroke="#343C48" stroke-width="2"/>
  <path d="M99.2997 131.507C109.461 145.219 109.111 165.316 110.096 177.275" stroke="#343C48" stroke-width="2"/>
  <path d="M48.415 153.262C50.3832 134.537 23.1209 114.208 12.1063 126.655" stroke="#343C48" stroke-width="2" stroke-dasharray="6 6"/>
  <path d="M113.014 217.934C113.014 217.934 123.934 211.455 130.321 206.198C136.708 200.942 146.992 186.554 146.781 182.067C146.57 177.579 142.529 175.449 142.529 175.449M99.0521 205.034C104.341 195.023 102.565 188.432 105.484 182.595C108.404 176.758 113.994 177.079 118.817 178.304M118.817 178.304C122.515 173.309 122.083 166.711 123.11 165.378C124.138 164.045 129.25 165.326 129.25 165.326M118.817 178.304C117.731 179.765 114.878 182.939 112.151 183.945M136.36 167.634C136.427 166.057 137.177 161.601 136.04 160.594C134.903 159.588 130.756 159.192 129.786 159.651C128.816 160.11 129.236 163.77 129.25 165.326M136.36 167.634C134.956 175.082 132.243 182.822 127.275 189.345M136.36 167.634C136.36 167.634 140.811 167.674 141.787 168.879C142.764 170.083 142.788 174.256 142.529 175.449M142.529 175.449C141.101 182.035 139.352 183.753 135.955 188.731M129.25 165.326C128.97 172.48 127.391 176.541 124.192 182.952" stroke="#343C48" stroke-width="2"/>
  <path d="M119.5 174.5L100 156.625M100 156.625L130.913 121M100 156.625L139.953 149.515M130.913 121L195 169.75M130.913 121L139.953 149.515M195 169.75L164.464 211M195 169.75L161.706 167.397M164.464 211L142.5 192.5M164.464 211L161.706 167.397M161.706 167.397H146.612L139.953 149.515" stroke="#ABB0B8" stroke-width="2"/>
  <path d="M205.493 155.269L220.5 157.096V168.23L224.5 179.769L212.493 181.269L206.993 191.798L197.5 181.269L185.5 184.21L182 172.769L165 168.23L175.493 155.269L174 141L188.493 146.298L199.25 141L205.493 155.269Z" fill="#14171B"/>
  <path d="M205.493 155.269L220.5 157.096V168.23L224.5 179.769L212.493 181.269L206.993 191.798L197.5 181.269L185.5 184.21L182 172.769L165 168.23L175.493 155.269L174 141L188.493 146.298L199.25 141L205.493 155.269Z" fill="#ABB0B8"/>
  <path d="M180.001 150.948L186.632 152.726M186.632 152.726L193.262 154.505M186.632 152.726L181.032 163.761" stroke="#14171B" stroke-width="2"/>
  <path d="M193.635 171.742C190.747 172.685 187.642 171.11 186.698 168.222C185.755 165.335 187.33 162.229 190.218 161.286C193.105 160.342 196.211 161.918 197.154 164.805C198.098 167.693 196.522 170.798 193.635 171.742Z" stroke="#14171B" stroke-width="2"/>
  <path d="M207.197 177.83C204.309 178.774 201.204 177.198 200.26 174.311C199.317 171.423 200.893 168.318 203.78 167.374C206.667 166.431 209.773 168.007 210.716 170.894C211.66 173.781 210.084 176.887 207.197 177.83Z" stroke="#14171B" stroke-width="2"/>
  <path d="M196.966 159.266C196.151 159.414 195.371 158.873 195.223 158.057C195.076 157.242 195.617 156.462 196.432 156.314C197.247 156.167 198.028 156.708 198.175 157.523C198.323 158.338 197.782 159.119 196.966 159.266Z" fill="#14171B"/>
  <path d="M206.575 163.354C205.796 163.636 204.936 163.234 204.654 162.455C204.371 161.676 204.773 160.816 205.552 160.534C206.331 160.251 207.191 160.653 207.474 161.432C207.756 162.211 207.354 163.071 206.575 163.354Z" fill="#14171B"/>
  <path d="M200.453 161.684C199.637 161.832 198.857 161.29 198.709 160.475C198.562 159.66 199.103 158.88 199.918 158.732C200.734 158.585 201.514 159.126 201.662 159.941C201.809 160.756 201.268 161.537 200.453 161.684Z" fill="#14171B"/>
  <path d="M210.418 165.151C209.64 165.434 208.779 165.031 208.497 164.253C208.214 163.474 208.617 162.613 209.395 162.331C210.174 162.048 211.035 162.451 211.317 163.23C211.599 164.008 211.197 164.869 210.418 165.151Z" fill="#14171B"/>
  <path d="M115.834 39.1191C113.163 49.3019 117.781 64.4067 116.499 66.6975C115.217 68.9883 107.065 67.4752 107.065 67.4752C107.065 67.4752 107.034 86.8361 103.587 89.1193C100.141 91.4025 81.4696 84.9269 81.4696 84.9269M81.4696 84.9269C81.4696 84.9269 73.9755 82.422 73.3577 74.9276M81.4696 84.9269C80.1341 94.9219 79.9988 99.8959 81.0003 107.471" stroke="#343C48" stroke-width="2"/>
  <path d="M47.815 65.5654C49.3029 86.1517 43.0192 98.001 31.3005 107.269" stroke="#343C48" stroke-width="2"/>
  <path d="M128.739 38.2734C124.683 42.6214 118.412 40.7971 115.783 39.3415C104.978 49.4634 93.7052 41.3287 89.4192 35.9962C82.3756 39.2482 80.2458 42.6229 79.6477 51.3509C79.4057 54.8827 72.5681 54.0362 73.5037 49.8506C75.6803 45.8248 72.4794 37.425 64.4216 37.0535C51.9321 36.4777 55.2443 53.5299 58.4615 62.128L47.1238 64.5677C44.5399 59.5965 39.2582 47.0547 38.8024 36.657C38.3466 26.2593 46.1818 18.6565 50.1564 16.1549C47.1255 15.903 41.3637 14.1705 42.564 9.25531C43.7642 4.34009 49.1532 8.04318 51.6977 10.5091C50.6618 8.08606 49.7859 3.14132 54.5697 2.74695C59.3535 2.35259 58.967 7.4014 58.1758 9.9751C73.5344 -3.33173 96.3539 4.48654 105.844 10.059C105.015 8.12057 104.122 3.77926 107.18 1.92178C110.238 0.0642961 113.379 4.08647 114.567 6.32975C115.358 3.75604 118.21 -0.593008 123.29 2.60046C128.37 5.79393 126.009 11.2396 124.194 13.5633C127.406 11.9606 134.254 10.2255 135.943 16.1067C137.631 21.9878 132.211 25.6121 129.289 26.689C130.796 28.7388 132.796 33.9254 128.739 38.2734Z" stroke="#343C48" stroke-width="2"/>
  <path d="M62.4641 43.7369C68.4849 43.7423 66.6912 52.8237 64.3253 55.9645" stroke="#343C48" stroke-width="2"/>
</svg>